# xmcd
#
# Track frame offsets:
#	150
#	12457
#	24857
#	42500
#	56900
#	70997
#	84522
#	95370
#	106442
#	119592
#
# Disc length: 1759 seconds
#
# Revision: 2
# Processed by: cddbd v1.5.2PL0 Copyright (c) Steve Scherf et al.
# Submitted via: audiograbber 1.83.01
#
DISCID=8506dd0a
DTITLE=Ambush - Ambush
DYEAR=1995
DGENRE=Country
TTITLE0=Ain't Gonna Take It No More
TTITLE1=Since She Got Back From Texas
TTITLE2=Forever Loving You
TTITLE3=Let's Go Crazy Girl
TTITLE4=Picture Of Perfect Love
TTITLE5=Hornets' Nest
TTITLE6=Girls Like That
TTITLE7=Would You Say Yes
TTITLE8=Don't Let It Hit You On The Way Out
TTITLE9=Hard To Say No
EXTD=
EXTT0=
EXTT1=
EXTT2=
EXTT3=
EXTT4=
EXTT5=
EXTT6=
EXTT7=
EXTT8=
EXTT9=
PLAYORDER=
